# xmcd
# 
# Track frame offsets:
#     150
#     30763
#     56420
#     83590
#     116600
#     143518
#     167613
#     198695
#     254925
#     296558
# 
# Disc length: 4326
# 
# Revision: 2
# Processed by: cddbd v1.5.2PL0 Copyright (c) Steve Scherf et al.
# Submitted via: BonkEnc v1.0.5
# 
DISCID=8610e40a
DTITLE=大村憲司 - ニッポンのロック
DYEAR=2002
DGENRE=Rock
TTITLE0=Wanna Be A Star
TTITLE1=When A Man Loves A Woman
TTITLE2=El Camino
TTITLE3=Rhythm Road
TTITLE4=My One And Only Love
TTITLE5=Samba De Rocks
TTITLE6=Left Handed Woman
TTITLE7=Bamboo Bong
TTITLE8=Rainbow In Your Eyes
TTITLE9=Leaving Home
EXTD=
EXTT0=
EXTT1=
EXTT2=
EXTT3=
EXTT4=
EXTT5=
EXTT6=
EXTT7=
EXTT8=
EXTT9=
PLAYORDER=
